<svg width="1070" height="300" viewBox="0 0 1070 300" fill="none" xmlns="http://www.w3.org/2000/svg">
<g clip-path="url(#clip0_1_13)">
<rect width="1070" height="300" fill="white"/>
<path d="M317.458 112.439H394.021V189.002H317.458V112.439Z" fill="#FFE599"/>
<path d="M232.729 197.169H309.292V273.731H232.729V197.169Z" fill="#FFE599"/>
<path d="M148 197.169H224.562V273.731H148V197.169Z" fill="#00404C"/>
<path d="M317.458 27.7102H394.021V104.273H317.458V27.7102Z" fill="#00404C"/>
<path d="M148 27.7102H224.562V104.273H148V27.7102Z" fill="#617E14"/>
<path d="M148 112.439H224.562V189.002H148V112.439Z" fill="#00404C"/>
<path d="M232.729 27.7102H309.292V104.273H232.729V27.7102Z" fill="#00404C"/>
<path d="M317.458 197.169H394.021V273.731H317.458V197.169Z" fill="#617E14"/>
<path d="M232.729 112.439H309.292V189.002H232.729V112.439Z" fill="#617E14"/>
<g style="mix-blend-mode:soft-light">
<path d="M92.1944 255.863C161.611 255.863 235.111 266.072 241.236 165.349C249.424 30.7043 277.306 44.2104 410.014 44.2104" stroke="black" stroke-opacity="0.6" stroke-width="48"/>
</g>
<path d="M487.367 138.254V226.438H471.508V124.035H486.068L487.367 138.254ZM527.152 158.078V163.957C527.152 169.745 526.628 174.849 525.58 179.27C524.532 183.69 522.982 187.404 520.932 190.412C518.926 193.374 516.443 195.607 513.48 197.111C510.518 198.615 507.055 199.367 503.09 199.367C499.353 199.367 496.094 198.547 493.314 196.906C490.58 195.266 488.279 192.964 486.41 190.002C484.542 187.04 483.038 183.531 481.898 179.475C480.805 175.373 480.007 170.907 479.506 166.076V157.053C480.007 151.949 480.782 147.3 481.83 143.107C482.924 138.869 484.405 135.223 486.273 132.17C488.188 129.117 490.512 126.77 493.246 125.129C495.98 123.488 499.239 122.668 503.021 122.668C506.986 122.668 510.473 123.374 513.48 124.787C516.488 126.2 518.995 128.365 521 131.281C523.051 134.198 524.577 137.889 525.58 142.355C526.628 146.776 527.152 152.017 527.152 158.078ZM511.225 163.957V158.078C511.225 154.296 510.974 151.037 510.473 148.303C510.017 145.523 509.242 143.244 508.148 141.467C507.1 139.689 505.756 138.368 504.115 137.502C502.52 136.636 500.538 136.203 498.168 136.203C496.072 136.203 494.226 136.636 492.631 137.502C491.036 138.368 489.691 139.576 488.598 141.125C487.504 142.629 486.638 144.429 486 146.525C485.362 148.576 484.952 150.809 484.77 153.225V169.973C485.18 172.889 485.863 175.578 486.82 178.039C487.777 180.454 489.167 182.391 490.99 183.85C492.859 185.308 495.297 186.037 498.305 186.037C500.629 186.037 502.611 185.581 504.252 184.67C505.893 183.758 507.214 182.391 508.217 180.568C509.265 178.745 510.017 176.467 510.473 173.732C510.974 170.952 511.225 167.694 511.225 163.957ZM550.777 189.865L566.637 124.035H583.385L558.98 209.211C558.434 211.079 557.659 213.085 556.656 215.227C555.699 217.368 554.446 219.396 552.896 221.311C551.393 223.27 549.501 224.842 547.223 226.027C544.99 227.258 542.324 227.873 539.225 227.873C537.949 227.873 536.718 227.759 535.533 227.531C534.348 227.303 533.209 227.03 532.115 226.711V213.859C532.48 213.905 532.89 213.951 533.346 213.996C533.801 214.042 534.212 214.064 534.576 214.064C536.809 214.064 538.655 213.723 540.113 213.039C541.572 212.401 542.779 211.353 543.736 209.895C544.693 208.482 545.536 206.59 546.266 204.221L550.777 189.865ZM543.736 124.035L556.725 179.064L559.527 196.906L548.59 199.709L526.578 124.035H543.736ZM620.613 178.518C620.613 176.968 620.158 175.601 619.246 174.416C618.38 173.186 616.967 171.978 615.008 170.793C613.048 169.608 610.428 168.332 607.146 166.965C603.729 165.552 600.698 164.139 598.055 162.727C595.411 161.314 593.178 159.764 591.355 158.078C589.533 156.346 588.143 154.364 587.186 152.131C586.229 149.898 585.75 147.3 585.75 144.338C585.75 141.285 586.32 138.459 587.459 135.861C588.598 133.264 590.239 130.985 592.381 129.025C594.523 127.02 597.098 125.471 600.105 124.377C603.113 123.238 606.508 122.668 610.291 122.668C615.623 122.668 620.18 123.648 623.963 125.607C627.791 127.521 630.708 130.21 632.713 133.674C634.764 137.092 635.789 141.034 635.789 145.5H619.861C619.861 143.632 619.52 141.945 618.836 140.441C618.152 138.892 617.104 137.661 615.691 136.75C614.279 135.793 612.479 135.314 610.291 135.314C608.286 135.314 606.6 135.702 605.232 136.477C603.911 137.206 602.908 138.208 602.225 139.484C601.587 140.715 601.268 142.105 601.268 143.654C601.268 144.794 601.473 145.796 601.883 146.662C602.293 147.528 602.977 148.371 603.934 149.191C604.891 149.966 606.167 150.764 607.762 151.584C609.402 152.404 611.476 153.339 613.982 154.387C618.95 156.301 623.074 158.283 626.355 160.334C629.637 162.385 632.098 164.777 633.738 167.512C635.379 170.246 636.199 173.641 636.199 177.697C636.199 180.979 635.584 183.941 634.354 186.584C633.169 189.227 631.437 191.506 629.158 193.42C626.925 195.334 624.214 196.815 621.023 197.863C617.879 198.866 614.37 199.367 610.496 199.367C604.708 199.367 599.809 198.228 595.799 195.949C591.834 193.625 588.826 190.64 586.775 186.994C584.725 183.348 583.699 179.497 583.699 175.441H599.08C599.217 178.358 599.832 180.637 600.926 182.277C602.065 183.918 603.501 185.057 605.232 185.695C606.964 186.288 608.764 186.584 610.633 186.584C612.866 186.584 614.712 186.288 616.17 185.695C617.628 185.057 618.722 184.123 619.451 182.893C620.226 181.662 620.613 180.204 620.613 178.518ZM677.393 182.961V146.115C677.393 143.563 677.028 141.512 676.299 139.963C675.615 138.413 674.59 137.297 673.223 136.613C671.901 135.884 670.238 135.52 668.232 135.52C666.136 135.52 664.359 135.952 662.9 136.818C661.488 137.684 660.417 138.869 659.688 140.373C658.958 141.831 658.594 143.518 658.594 145.432H642.666C642.666 142.469 643.258 139.621 644.443 136.887C645.674 134.152 647.428 131.714 649.707 129.572C651.986 127.43 654.743 125.744 657.979 124.514C661.214 123.283 664.814 122.668 668.779 122.668C673.519 122.668 677.734 123.465 681.426 125.061C685.117 126.61 688.011 129.139 690.107 132.648C692.249 136.112 693.32 140.669 693.32 146.32V180.842C693.32 184.26 693.525 187.313 693.936 190.002C694.391 192.645 695.007 194.947 695.781 196.906V198H679.58C678.851 196.223 678.304 193.944 677.939 191.164C677.575 188.384 677.393 185.65 677.393 182.961ZM679.512 152.951L679.58 163.273H671.924C669.645 163.273 667.594 163.592 665.771 164.23C663.949 164.823 662.399 165.689 661.123 166.828C659.893 167.922 658.936 169.266 658.252 170.861C657.614 172.456 657.295 174.211 657.295 176.125C657.295 178.449 657.614 180.34 658.252 181.799C658.936 183.257 659.915 184.351 661.191 185.08C662.513 185.764 664.108 186.105 665.977 186.105C668.529 186.105 670.739 185.559 672.607 184.465C674.521 183.326 675.98 181.958 676.982 180.363C678.031 178.768 678.441 177.31 678.213 175.988L681.836 182.619C681.471 184.351 680.788 186.174 679.785 188.088C678.828 190.002 677.575 191.825 676.025 193.557C674.476 195.288 672.607 196.701 670.42 197.795C668.232 198.843 665.703 199.367 662.832 199.367C658.685 199.367 654.993 198.501 651.758 196.77C648.522 195.038 645.97 192.554 644.102 189.318C642.279 186.037 641.367 182.118 641.367 177.561C641.367 173.869 641.982 170.52 643.213 167.512C644.443 164.504 646.266 161.929 648.682 159.787C651.097 157.6 654.128 155.913 657.773 154.729C661.465 153.544 665.771 152.951 670.693 152.951H679.512ZM742.102 124.035H756.525V198.273C756.525 204.927 755.295 210.373 752.834 214.611C750.419 218.895 747.046 222.062 742.717 224.113C738.387 226.164 733.374 227.189 727.678 227.189C725.581 227.189 723.098 226.848 720.227 226.164C717.355 225.48 714.553 224.478 711.818 223.156C709.084 221.835 706.805 220.194 704.982 218.234L710.793 207.16C712.935 209.348 715.464 211.034 718.381 212.219C721.298 213.449 724.1 214.064 726.789 214.064C729.706 214.064 732.167 213.563 734.172 212.561C736.223 211.604 737.795 209.986 738.889 207.707C739.982 205.474 740.529 202.443 740.529 198.615V140.783L742.102 124.035ZM700.266 164.025V158.215C700.266 152.154 700.835 146.913 701.975 142.492C703.114 138.026 704.755 134.312 706.896 131.35C709.038 128.387 711.659 126.2 714.758 124.787C717.857 123.374 721.32 122.668 725.148 122.668C729.113 122.668 732.463 123.511 735.197 125.197C737.977 126.838 740.233 129.185 741.965 132.238C743.742 135.292 745.132 138.938 746.135 143.176C747.137 147.368 747.867 152.062 748.322 157.258V165.324C747.867 170.337 747.092 174.94 745.998 179.133C744.904 183.28 743.423 186.857 741.555 189.865C739.732 192.873 737.453 195.22 734.719 196.906C732.03 198.547 728.794 199.367 725.012 199.367C721.229 199.367 717.811 198.615 714.758 197.111C711.704 195.607 709.084 193.374 706.896 190.412C704.755 187.45 703.114 183.781 701.975 179.406C700.835 174.986 700.266 169.859 700.266 164.025ZM716.193 158.215V164.025C716.193 167.808 716.444 171.066 716.945 173.801C717.492 176.535 718.29 178.791 719.338 180.568C720.386 182.3 721.753 183.599 723.439 184.465C725.126 185.285 727.131 185.695 729.455 185.695C732.508 185.695 734.969 184.966 736.838 183.508C738.752 182.049 740.21 180.09 741.213 177.629C742.261 175.122 742.99 172.342 743.4 169.289V153.361C743.173 150.946 742.717 148.713 742.033 146.662C741.395 144.566 740.507 142.743 739.367 141.193C738.273 139.644 736.906 138.436 735.266 137.57C733.671 136.659 731.779 136.203 729.592 136.203C727.313 136.203 725.308 136.659 723.576 137.57C721.89 138.436 720.5 139.781 719.406 141.604C718.312 143.381 717.492 145.66 716.945 148.439C716.444 151.174 716.193 154.432 716.193 158.215ZM793.822 199.367C789.037 199.367 784.776 198.661 781.039 197.248C777.302 195.79 774.135 193.648 771.537 190.822C768.939 187.951 766.957 184.442 765.59 180.295C764.223 176.102 763.539 171.249 763.539 165.734V158.625C763.539 152.382 764.245 147.004 765.658 142.492C767.117 137.935 769.122 134.198 771.674 131.281C774.226 128.365 777.234 126.2 780.697 124.787C784.206 123.374 788.012 122.668 792.113 122.668C796.762 122.668 800.795 123.42 804.213 124.924C807.631 126.428 810.434 128.684 812.621 131.691C814.854 134.699 816.495 138.413 817.543 142.834C818.637 147.255 819.184 152.336 819.184 158.078V166.076H771.195V154.045H803.461V152.336C803.37 148.964 802.96 146.07 802.23 143.654C801.501 141.193 800.316 139.325 798.676 138.049C797.081 136.727 794.87 136.066 792.045 136.066C789.994 136.066 788.171 136.454 786.576 137.229C784.981 138.003 783.66 139.257 782.611 140.988C781.609 142.72 780.834 145.044 780.287 147.961C779.74 150.832 779.467 154.387 779.467 158.625V165.734C779.467 169.426 779.786 172.548 780.424 175.1C781.107 177.652 782.11 179.748 783.432 181.389C784.753 182.984 786.348 184.169 788.217 184.943C790.131 185.673 792.341 186.037 794.848 186.037C798.539 186.037 801.706 185.354 804.35 183.986C807.038 182.574 809.363 180.751 811.322 178.518L818.363 188.293C817.042 190.07 815.264 191.825 813.031 193.557C810.798 195.243 808.087 196.633 804.896 197.727C801.752 198.82 798.061 199.367 793.822 199.367ZM840.963 139.074V198H825.035V124.035H840.006L840.963 139.074ZM838.365 158.352H832.965C832.874 153.202 833.329 148.462 834.332 144.133C835.38 139.803 836.93 136.021 838.98 132.785C841.077 129.549 843.697 127.066 846.842 125.334C849.986 123.557 853.655 122.668 857.848 122.668C860.628 122.668 863.18 123.169 865.504 124.172C867.874 125.129 869.924 126.656 871.656 128.752C873.434 130.848 874.801 133.537 875.758 136.818C876.715 140.1 877.193 144.064 877.193 148.713V198H861.266V150.217C861.266 146.662 860.855 143.882 860.035 141.877C859.26 139.826 858.121 138.368 856.617 137.502C855.113 136.636 853.29 136.203 851.148 136.203C848.824 136.203 846.842 136.796 845.201 137.98C843.561 139.12 842.239 140.715 841.236 142.766C840.234 144.771 839.505 147.118 839.049 149.807C838.593 152.45 838.365 155.298 838.365 158.352ZM876.168 154.113L868.717 155.822C868.626 151.311 869.081 147.072 870.084 143.107C871.087 139.097 872.59 135.565 874.596 132.512C876.646 129.458 879.199 127.066 882.252 125.334C885.351 123.557 888.928 122.668 892.984 122.668C896.174 122.668 899.023 123.192 901.529 124.24C904.036 125.243 906.178 126.838 907.955 129.025C909.732 131.213 911.077 134.061 911.988 137.57C912.945 141.034 913.424 145.249 913.424 150.217V198H897.428V150.148C897.428 146.457 897.018 143.609 896.197 141.604C895.423 139.598 894.283 138.208 892.779 137.434C891.275 136.613 889.475 136.203 887.379 136.203C885.556 136.203 883.938 136.682 882.525 137.639C881.158 138.55 879.996 139.826 879.039 141.467C878.082 143.107 877.353 145.021 876.852 147.209C876.396 149.351 876.168 151.652 876.168 154.113Z" fill="black"/>
</g>
<defs>
<clipPath id="clip0_1_13">
<rect width="1070" height="300" fill="white"/>
</clipPath>
</defs>
</svg>
